<?xml version="1.0" standalone="no"?>
<!DOCTYPE svg PUBLIC "-//W3C//DTD SVG 20010904//EN"
 "http://www.w3.org/TR/2001/REC-SVG-20010904/DTD/svg10.dtd">
<svg version="1.0" xmlns="http://www.w3.org/2000/svg"
 width="460.000000pt" height="460.000000pt" viewBox="0 0 460.000000 460.000000"
 preserveAspectRatio="xMidYMid meet">
<metadata>
Created by potrace 1.11, written by Peter Selinger 2001-2013
</metadata>
<g transform="translate(0.000000,460.000000) scale(0.100000,-0.100000)"
fill="#000000" stroke="none">
<path d="M0 4197 c1 -389 2 -403 20 -415 13 -8 20 -8 20 -2 0 6 9 5 22 -4 22
-13 76 -31 89 -28 47 8 89 9 89 1 0 -5 6 -9 13 -7 14 3 57 -37 57 -54 0 -6 2
-9 5 -6 3 3 19 -7 36 -23 16 -15 38 -31 49 -34 15 -5 40 -47 44 -77 1 -3 25
-31 54 -62 30 -31 50 -56 46 -56 -4 0 1 -10 12 -22 12 -13 13 -18 4 -13 -10 5
-8 1 4 -13 10 -12 23 -19 29 -15 6 3 7 1 3 -5 -4 -7 -3 -12 2 -12 5 0 14 -11
22 -24 7 -14 23 -27 37 -31 13 -3 21 -10 18 -16 -4 -5 -3 -9 2 -8 22 4 34 -2
27 -13 -4 -7 -3 -10 1 -5 5 4 17 -1 28 -10 11 -10 17 -12 12 -4 -5 8 2 7 19
-4 15 -10 60 -21 106 -26 43 -4 94 -15 113 -24 18 -8 47 -17 64 -18 17 -1 29
-6 26 -11 -4 -5 6 -6 21 -2 20 5 26 4 20 -5 -4 -8 -3 -9 5 -5 8 5 9 12 2 19
-6 9 3 13 36 14 35 2 49 8 62 25 9 13 16 26 17 31 1 4 3 10 4 15 2 4 4 12 4
17 2 17 46 56 56 50 5 -3 11 -1 15 5 3 5 12 10 20 10 8 0 52 25 97 55 46 31
106 70 133 88 28 18 52 35 55 39 3 4 35 15 70 24 56 14 111 34 171 65 9 4 43
12 75 18 33 6 75 16 94 22 44 13 81 21 99 22 13 0 112 87 99 87 -4 0 7 26 23
58 16 31 29 60 29 64 0 4 5 19 11 35 7 15 14 43 16 62 2 19 8 42 14 52 5 11 7
19 4 19 -3 0 0 10 7 23 7 12 12 27 13 32 1 30 45 77 104 111 95 56 146 76 228
89 11 1 30 6 41 9 11 4 30 9 41 11 11 2 36 15 54 29 19 14 37 24 40 21 4 -3 5
-3 3 0 -2 3 12 22 31 43 33 35 103 159 103 182 0 7 -481 10 -1495 10 l-1495 0
0 -403z"/>
<path d="M3321 4548 c-11 -29 -26 -75 -32 -103 -6 -27 -14 -57 -17 -65 -3 -8
-5 -24 -6 -35 -1 -11 -5 -26 -9 -32 -5 -7 -6 -13 -2 -13 3 0 -1 -13 -9 -29 -9
-16 -12 -31 -9 -35 4 -3 0 -6 -7 -6 -7 0 -11 -3 -8 -6 4 -3 -5 -22 -18 -41
-13 -19 -22 -39 -19 -43 3 -4 -2 -11 -11 -14 -8 -3 -13 -10 -10 -15 3 -5 -1
-12 -10 -15 -9 -4 -14 -9 -11 -12 3 -3 -10 -35 -29 -72 -19 -36 -34 -72 -34
-79 0 -7 -4 -13 -9 -13 -5 0 -14 -13 -21 -30 -7 -16 -16 -30 -21 -30 -5 0 -6
-7 -2 -16 3 -10 0 -22 -8 -28 -34 -26 -84 -192 -76 -255 2 -20 10 -48 18 -61
7 -14 12 -28 11 -32 -3 -11 20 -24 114 -65 51 -22 125 -60 166 -85 41 -25 113
-64 161 -86 109 -51 181 -118 244 -226 27 -44 50 -85 52 -91 2 -5 27 -67 57
-137 55 -131 62 -153 71 -228 4 -40 2 -49 -23 -73 -22 -23 -27 -36 -26 -67 3
-42 -8 -70 -37 -99 -13 -13 -20 -42 -25 -106 -5 -56 -15 -103 -28 -129 -22
-46 -81 -106 -104 -106 -19 0 -18 -6 7 -47 16 -26 24 -31 34 -23 17 14 15 -5
-5 -40 -8 -14 -24 -45 -37 -70 -29 -56 -94 -100 -138 -93 -16 2 -50 15 -75 28
-32 16 -72 25 -133 30 -62 5 -106 15 -143 32 -77 35 -88 28 -80 -48 4 -33 23
-105 42 -160 33 -92 35 -104 27 -166 -8 -65 -9 -67 -53 -94 -58 -36 -89 -35
-165 1 -62 30 -66 34 -101 117 -9 22 -61 86 -121 149 -18 19 -42 52 -53 74
-31 61 -52 54 -137 -40 -40 -45 -73 -86 -73 -92 0 -6 -11 -25 -24 -43 -13 -17
-31 -47 -39 -66 -19 -45 -53 -79 -78 -79 -10 0 -47 11 -80 25 l-61 24 -24 -26
c-13 -14 -21 -29 -18 -34 3 -5 1 -9 -4 -9 -5 0 -14 -15 -20 -32 -6 -18 -18
-53 -27 -78 -19 -52 -20 -58 -12 -125 7 -62 17 -180 22 -260 4 -76 -16 -129
-68 -177 -44 -41 -65 -46 -246 -62 -27 -3 -73 -12 -102 -20 -29 -9 -65 -16
-80 -16 -33 0 -92 -47 -85 -66 3 -8 1 -14 -4 -14 -5 0 -15 -19 -21 -42 -18
-74 -45 -84 -261 -98 -12 0 -10 -48 2 -55 29 -18 51 -172 36 -243 l-8 -32
1706 0 1706 0 0 2300 0 2300 -629 0 -629 0 -21 -52z"/>
<path d="M2839 3419 c-20 -17 -25 -33 -29 -90 -4 -51 -2 -69 7 -69 7 0 10 -7
7 -15 -4 -8 -1 -15 5 -15 7 0 7 -8 -1 -26 -11 -23 -13 -24 -19 -7 -6 15 -8 13
-8 -8 -1 -20 5 -28 23 -33 37 -9 22 -53 -16 -47 -4 0 -12 -9 -18 -22 -11 -21
-10 -21 4 -3 16 20 16 19 16 -1 0 -11 6 -23 14 -26 8 -3 13 -14 11 -24 -2 -10
-4 -24 -4 -31 -1 -8 -7 -12 -13 -9 -7 2 -12 10 -10 16 1 7 -2 10 -8 6 -6 -3
-8 -10 -5 -14 2 -5 -2 -17 -11 -27 -14 -18 -15 -17 -9 16 4 29 3 31 -5 12 -5
-12 -16 -25 -25 -28 -8 -4 -15 -12 -15 -19 0 -7 -4 -15 -10 -17 -5 -1 -18 -27
-29 -57 -17 -50 -21 -54 -55 -57 -22 -2 -36 1 -36 8 0 6 -3 8 -6 5 -8 -7 -66
48 -81 78 -6 11 -34 51 -62 89 -28 37 -48 73 -44 79 3 6 1 7 -5 3 -9 -5 -9
-13 -1 -27 15 -29 2 -37 -17 -11 -8 12 -20 19 -26 16 -6 -4 -6 2 1 15 10 17 9
21 -4 21 -10 0 -14 -5 -10 -12 4 -7 -1 -4 -9 6 -9 11 -16 24 -16 30 0 5 -3 7
-6 3 -6 -6 3 -31 75 -207 33 -83 33 -176 -1 -214 -16 -18 -18 -18 -70 0 -29
10 -64 28 -78 39 -72 62 -114 74 -50 15 24 -22 49 -40 55 -40 7 0 18 -7 25
-14 6 -8 31 -24 55 -36 29 -14 45 -29 47 -43 2 -12 9 -22 16 -22 6 0 12 -4 13
-10 1 -5 6 -19 11 -30 9 -16 8 -18 -3 -7 -7 6 -21 12 -30 12 -9 0 -19 6 -22
14 -3 7 -27 26 -54 41 -84 48 -151 94 -189 130 -35 33 -59 49 -109 74 -11 5
-51 41 -89 80 -37 39 -73 71 -80 71 -11 -1 126 -134 219 -213 27 -23 77 -70
112 -104 34 -35 65 -63 69 -63 3 0 20 -15 38 -34 19 -21 54 -43 91 -57 33 -12
66 -26 73 -32 10 -8 16 -7 22 2 6 11 8 11 12 0 2 -7 22 -13 47 -15 23 -1 45
-5 49 -9 4 -5 0 -5 -8 -1 -8 4 -7 1 3 -7 18 -15 18 -16 1 -25 -15 -8 -9 -11
29 -17 26 -4 47 -12 47 -17 0 -5 5 -6 10 -3 17 10 11 -11 -7 -28 -23 -20 -166
-87 -200 -93 -15 -3 -34 -9 -42 -14 -14 -8 -13 -9 4 -10 19 0 -35 -31 -210
-119 -44 -22 -125 -54 -180 -71 -55 -17 -131 -47 -169 -66 -38 -19 -76 -34
-85 -33 -39 3 -51 -2 -51 -22 0 -15 -4 -19 -15 -15 -52 21 -51 21 -36 3 17
-21 48 -22 97 -1 22 9 86 31 144 49 58 18 143 47 190 65 47 18 119 45 160 60
114 42 125 47 139 64 7 9 21 16 30 16 10 0 30 14 46 30 41 43 53 37 14 -7 -18
-21 -36 -37 -40 -36 -4 1 -6 -5 -4 -15 1 -9 -8 -36 -22 -60 -24 -42 -93 -217
-93 -237 0 -12 19 16 54 78 14 26 26 55 26 63 0 11 6 14 16 10 8 -3 13 -2 10
3 -7 10 30 97 44 106 6 3 10 0 10 -7 1 -22 29 35 30 60 0 13 6 22 16 22 11 0
15 6 11 19 -5 22 35 96 47 84 4 -4 4 0 1 9 -8 21 9 32 24 15 8 -10 5 -20 -12
-37 -12 -14 -23 -39 -24 -58 -1 -19 -11 -44 -22 -56 -11 -12 -31 -49 -43 -83
-13 -34 -34 -74 -46 -88 -12 -14 -30 -45 -39 -68 -9 -23 -26 -55 -38 -72 -50
-68 -187 -334 -179 -346 3 -5 0 -9 -6 -9 -7 0 -9 18 -6 53 4 37 3 43 -3 22 -4
-16 -15 -44 -24 -62 -27 -52 -17 -94 23 -92 10 0 7 4 -8 11 -24 12 -28 48 -6
55 7 2 10 -6 7 -22 -5 -25 11 -36 20 -12 3 7 6 4 6 -6 2 -43 39 18 47 76 4 27
51 123 77 157 34 44 109 199 102 210 -3 6 1 7 9 4 11 -4 16 0 16 10 0 9 4 16
9 16 5 0 13 10 16 23 17 58 85 179 85 151 0 -5 9 5 20 23 18 31 56 73 64 73 2
0 6 -16 8 -35 3 -23 -1 -36 -9 -40 -10 -3 -11 -10 -4 -24 6 -10 7 -22 3 -26
-4 -5 -2 -5 4 -2 12 7 21 -28 30 -103 8 -78 86 -284 127 -335 13 -16 34 -52
46 -80 12 -27 31 -60 43 -72 11 -12 17 -26 13 -32 -3 -6 -1 -11 5 -11 7 0 10
-6 7 -14 -3 -8 3 -26 14 -41 l21 -25 19 24 c23 29 24 40 5 55 -7 6 -16 30 -20
52 -4 24 -11 37 -17 33 -6 -3 -9 0 -8 7 4 21 -32 139 -42 139 -5 0 -9 5 -9 10
0 6 -8 27 -17 48 -16 36 -22 58 -26 95 -1 9 -4 17 -7 17 -3 0 -7 10 -7 23 -5
81 -13 166 -18 188 -4 16 -2 29 4 33 6 4 11 14 11 22 0 8 -4 12 -10 9 -6 -4
-10 5 -10 19 0 14 -4 26 -8 26 -5 0 -9 6 -9 13 0 6 -3 22 -7 35 -9 27 9 29 42
4 25 -19 31 -53 17 -87 -7 -16 -6 -18 6 -9 19 15 42 10 78 -15 16 -12 34 -21
40 -21 6 0 26 -13 44 -30 19 -16 39 -30 43 -30 5 -1 25 -14 44 -30 19 -17 39
-30 44 -30 5 0 17 -7 26 -15 10 -9 60 -31 111 -49 52 -18 119 -48 151 -65 55
-30 95 -41 83 -21 -3 6 1 7 9 4 9 -3 16 -1 16 5 0 6 -5 11 -11 11 -5 0 -7 5
-4 11 4 6 -2 5 -13 -2 -12 -7 -18 -17 -16 -21 3 -4 1 -8 -4 -8 -9 0 -23 31
-26 55 -2 16 -20 32 -46 39 -25 6 -25 6 -2 -5 12 -7 22 -16 22 -21 0 -12 -6
-10 -41 11 -17 11 -38 17 -47 14 -12 -5 -14 -1 -8 20 6 26 4 27 -31 28 -21 1
-41 1 -45 0 -5 0 -8 4 -8 9 0 6 -10 9 -23 6 -13 -2 -38 2 -56 10 -30 12 -32
16 -20 31 12 15 12 16 -3 10 -11 -4 -17 -2 -15 6 1 7 -9 12 -24 12 -14 0 -43
15 -65 32 -32 27 -36 34 -24 43 8 5 11 10 5 11 -5 1 -14 3 -20 4 -5 2 -15 3
-21 4 -7 0 -14 10 -17 21 -3 10 -2 19 2 18 23 -3 22 5 -4 22 -22 14 -39 18
-62 14 -21 -4 -33 -2 -33 5 0 6 5 11 12 11 6 0 1 9 -12 20 -13 11 -32 20 -42
20 -11 0 -17 4 -13 9 5 8 -34 38 -42 33 -10 -7 -24 0 -20 11 2 6 -2 20 -11 29
-13 16 -13 18 1 24 8 3 24 1 36 -5 24 -13 83 -15 63 -2 -10 6 -6 10 15 14 17
3 34 0 44 -9 8 -8 21 -14 28 -14 6 0 14 -7 17 -15 7 -18 31 -20 37 -2 3 10 9
10 26 0 28 -17 31 -16 31 6 0 14 5 18 19 14 10 -3 28 0 40 6 15 9 317 25 416
23 6 0 35 -1 66 -2 30 -2 65 1 77 4 29 10 28 42 0 50 -19 5 -21 8 -8 16 25 16
-7 12 -40 -5 -17 -9 -30 -13 -30 -9 0 4 -6 1 -13 -5 -8 -6 -30 -12 -50 -13
-20 -2 -37 -6 -37 -10 0 -3 -9 -4 -20 -1 -24 6 -27 33 -4 33 8 0 12 -4 9 -10
-8 -12 56 -1 70 12 7 6 5 9 -5 7 -8 -1 -40 1 -70 6 -70 11 -102 13 -114 6 -6
-2 -34 -3 -64 -2 -30 1 -52 -1 -49 -6 3 -4 -1 -14 -9 -21 -8 -7 -14 -10 -14
-6 0 3 -7 1 -15 -6 -8 -6 -18 -9 -23 -6 -5 3 -19 7 -33 10 -13 3 -34 7 -46 10
-13 3 -23 1 -23 -5 0 -5 -13 -9 -30 -9 -20 0 -30 5 -30 15 0 19 47 38 76 31
13 -4 25 -2 28 3 3 5 15 7 26 4 11 -3 18 -9 15 -13 -2 -4 2 -16 11 -26 15 -18
15 -18 5 1 -6 13 -6 27 0 37 7 13 2 18 -23 27 -17 6 -47 11 -66 11 -40 0 -61
21 -62 61 0 42 22 74 129 188 55 59 111 121 123 137 13 17 46 50 73 74 28 23
52 44 54 46 2 2 -2 10 -8 18 -10 12 -8 19 8 35 12 12 26 21 31 21 14 0 12 -27
-2 -34 -7 -3 -4 -5 7 -3 13 1 20 10 20 22 0 17 -7 20 -39 19 -21 -1 -41 -6
-45 -11 -3 -5 -17 -17 -31 -27 l-25 -18 24 5 c16 4 21 3 14 -4 -6 -6 -22 -11
-37 -13 -15 -1 -34 -13 -42 -25 -9 -12 -19 -19 -24 -16 -5 3 -17 -7 -27 -22
-10 -15 -25 -35 -33 -45 -28 -31 -35 -43 -35 -58 0 -8 -7 -16 -15 -16 -8 -1
-20 -2 -27 -3 -6 0 -10 -9 -8 -20 2 -14 -2 -17 -21 -15 -17 2 -24 -3 -24 -16
0 -9 -18 -32 -40 -50 -22 -18 -40 -40 -40 -49 0 -19 -19 -41 -35 -41 -5 0 -3
5 5 10 13 8 12 10 -2 10 -10 0 -18 -4 -18 -10 0 -5 -7 -10 -15 -10 -8 0 -15
-6 -15 -13 0 -8 -13 -26 -30 -40 -16 -15 -30 -24 -30 -21 0 4 -6 1 -13 -5 -8
-6 -17 -8 -20 -5 -4 4 8 18 26 33 19 14 48 43 66 64 18 20 38 37 45 37 6 0 19
13 30 28 10 16 32 34 47 41 16 7 26 17 23 23 -4 6 -9 6 -13 1 -3 -5 -15 -10
-26 -10 -32 -1 -89 -26 -103 -45 -7 -10 -20 -18 -28 -18 -12 0 -12 4 2 25 15
23 15 25 0 25 -9 0 -15 -3 -14 -7 3 -8 -5 -13 -20 -13 -17 0 -20 155 -3 228 6
26 13 107 16 181 3 73 7 136 10 140 9 15 8 142 -2 152 -6 6 -18 2 -34 -12z m7
-88 c-9 -10 -12 -22 -8 -27 4 -5 2 -5 -5 1 -17 14 -5 55 13 48 13 -5 13 -8 0
-22z m-420 -320 c7 -1 15 -13 18 -27 4 -14 16 -35 26 -47 11 -11 20 -28 20
-37 0 -9 4 -20 9 -25 10 -10 17 -37 28 -112 5 -36 3 -43 -11 -43 -9 0 -16 -5
-16 -12 0 -6 -3 -9 -6 -5 -3 3 -6 8 -6 11 0 53 -71 238 -105 274 -19 20 -16
29 10 26 12 -1 27 -3 33 -3z m387 -44 c3 -8 -1 -14 -8 -14 -7 0 -11 6 -8 14 3
7 6 13 8 13 2 0 5 -6 8 -13z m-29 -77 c-3 -2 -9 2 -13 9 -6 8 -11 9 -15 3 -3
-6 2 -13 12 -16 14 -5 17 -14 14 -36 -2 -16 -8 -27 -13 -24 -5 3 -7 9 -4 14 3
5 0 12 -6 16 -9 5 -10 0 -4 -17 11 -34 9 -99 -4 -112 -6 -6 -11 -20 -12 -32 0
-11 -3 -15 -5 -8 -3 7 -12 9 -19 7 -10 -4 -13 1 -11 18 4 35 17 58 31 58 8 0
17 5 20 10 4 6 1 9 -7 8 -17 -4 -23 103 -7 133 l11 22 19 -24 c9 -13 15 -26
13 -29z m26 46 c0 -3 -4 -8 -10 -11 -5 -3 -10 -1 -10 4 0 6 5 11 10 11 6 0 10
-2 10 -4z m-150 -165 c0 -5 -7 -14 -15 -21 -13 -10 -18 -11 -28 -1 -9 10 -8
11 6 6 12 -5 17 -2 17 9 0 9 5 16 10 16 6 0 10 -4 10 -9z m-4 -76 c9 -8 11
-15 5 -15 -6 0 -11 -9 -11 -20 0 -11 4 -20 8 -20 5 0 9 -7 9 -15 0 -8 -5 -15
-10 -15 -5 0 -7 -11 -5 -25 3 -14 1 -22 -4 -18 -6 3 -3 -5 5 -18 17 -27 35
-124 18 -99 -5 8 -13 11 -17 8 -8 -8 -28 10 -37 35 -3 9 -10 16 -14 15 -4 -2
-8 -1 -9 2 0 3 -6 14 -12 25 -9 18 -7 21 9 21 11 0 19 -7 19 -18 0 -10 5 -15
13 -13 16 7 14 64 -3 75 -7 5 -11 19 -8 34 3 14 2 26 -2 26 -5 0 -6 9 -3 21 4
16 8 17 14 7 7 -10 9 -9 9 5 0 21 7 22 26 2z m-106 -19 c0 -7 5 -17 12 -24 12
-12 18 -82 7 -82 -10 0 -22 33 -20 55 1 14 -1 16 -7 7 -7 -10 -11 -10 -22 3
-9 11 -10 19 -2 27 6 6 8 17 5 24 -4 10 0 12 11 8 9 -3 16 -12 16 -18z m290
-6 c0 -5 -14 -25 -31 -44 -17 -20 -28 -40 -24 -46 3 -5 2 -10 -3 -10 -24 0
-18 32 11 69 32 40 47 50 47 31z m-350 -70 c0 -5 -2 -10 -4 -10 -3 0 -8 5 -11
10 -3 6 -1 10 4 10 6 0 11 -4 11 -10z m204 -37 c-4 -19 -3 -24 4 -15 7 11 10
11 15 -3 6 -15 -18 -34 -29 -23 -8 9 -14 50 -8 59 12 20 24 7 18 -18z m-174 1
c0 -2 -7 -4 -15 -4 -8 0 -15 4 -15 10 0 5 7 7 15 4 8 -4 15 -8 15 -10z m-60
-36 c0 -6 -7 -5 -15 2 -8 7 -15 17 -15 22 0 6 7 5 15 -2 8 -7 15 -17 15 -22z
m343 -15 c-3 -8 -12 -12 -19 -9 -8 3 -11 0 -7 -10 4 -11 0 -15 -12 -12 -10 2
-20 -3 -23 -11 -3 -10 0 -12 14 -7 15 6 16 5 7 -5 -10 -10 -18 -10 -37 0 l-24
13 20 34 c21 35 35 46 24 19 -4 -13 -2 -13 14 -5 10 5 22 15 26 21 9 15 24 -9
17 -28z m-283 6 c0 -6 -4 -7 -10 -4 -5 3 -10 11 -10 16 0 6 5 7 10 4 6 -3 10
-11 10 -16z m470 0 c0 -6 -6 -9 -12 -6 -7 2 -24 0 -37 -5 -23 -8 -23 -9 -5
-23 18 -13 18 -14 -3 -8 -15 3 -25 0 -29 -11 -3 -9 -9 -14 -13 -13 -3 2 -14
-4 -23 -15 -15 -15 -15 -18 -3 -18 21 0 19 -30 -2 -31 -10 0 -33 -2 -51 -3
-18 -1 -35 1 -38 5 -2 5 -11 6 -18 3 -8 -3 -17 -1 -21 5 -3 6 2 11 12 11 14 0
15 2 4 9 -20 13 45 57 96 66 23 3 59 15 80 26 42 21 63 24 63 8z m-437 -14
c-3 -9 -8 -14 -10 -11 -3 3 -2 9 2 15 9 16 15 13 8 -4z m457 -81 c0 -2 -7 -4
-15 -4 -8 0 -15 4 -15 10 0 5 7 7 15 4 8 -4 15 -8 15 -10z m-81 3 c-2 -1 -12
-9 -21 -16 -15 -12 -18 -11 -18 3 0 10 8 16 22 16 12 0 19 -1 17 -3z m391 -6
c0 -5 -7 -14 -15 -21 -17 -14 -50 -5 -39 11 5 8 9 8 14 -1 5 -8 9 -7 13 4 7
17 27 22 27 7z m24 -30 c-8 -9 -22 12 -17 26 6 15 7 14 13 -3 4 -10 6 -21 4
-23z m46 29 c0 -5 -5 -10 -11 -10 -5 0 -7 5 -4 10 3 6 8 10 11 10 2 0 4 -4 4
-10z m250 -10 c0 -5 7 -10 16 -10 8 0 13 -4 9 -10 -3 -5 -12 -7 -20 -5 -51 16
-50 16 -35 25 20 13 30 12 30 0z m-927 -123 c4 3 7 -2 8 -13 0 -10 2 -29 3
-41 1 -12 -1 -20 -6 -17 -4 3 -8 0 -8 -5 0 -25 -18 -9 -25 22 -4 19 -9 26 -12
17 -14 -45 -15 -46 -23 -25 -5 11 -9 14 -9 8 -1 -7 -5 -13 -11 -13 -5 0 -8 6
-6 13 3 6 7 24 10 39 7 30 23 32 44 8 12 -13 13 -11 8 10 -4 22 -4 23 8 8 7
-10 16 -15 19 -11z m3 -118 c1 -5 2 -10 4 -11 1 -2 3 -12 5 -23 2 -11 12 -25
22 -32 9 -8 18 -24 18 -36 1 -13 4 -28 8 -34 4 -7 3 -14 -2 -18 -13 -7 -3 -36
17 -52 10 -8 11 -13 4 -13 -8 0 -7 -12 4 -40 9 -22 14 -47 10 -55 -8 -21 60
-207 80 -222 14 -10 15 -15 5 -27 -7 -8 -10 -20 -6 -26 3 -5 1 -10 -6 -10 -6
0 -9 8 -6 20 3 11 1 20 -5 20 -5 0 -7 4 -3 9 3 5 -4 11 -16 13 -15 2 -26 15
-36 43 -22 61 -24 77 -10 94 10 14 10 14 -4 4 -13 -11 -18 -9 -27 13 -7 14
-12 36 -12 50 0 13 -9 52 -20 85 -11 33 -18 64 -15 69 3 6 -1 50 -9 100 -9 49
-16 93 -16 97 0 9 15 -7 16 -18z m257 -752 c14 -14 20 -37 11 -37 -8 0 -33 32
-34 43 0 11 10 9 23 -6z"/>
<path d="M2781 1834 c0 -11 3 -14 6 -6 3 7 2 16 -1 19 -3 4 -6 -2 -5 -13z"/>
<path d="M2840 1660 c0 -5 5 -10 11 -10 5 0 7 5 4 10 -3 6 -8 10 -11 10 -2 0
-4 -4 -4 -10z"/>
<path d="M20 3358 c0 -5 -4 -6 -10 -3 -7 4 -10 -243 -10 -735 l0 -742 40 35
c22 18 63 46 92 61 78 41 170 105 195 136 20 24 21 31 10 59 -6 17 -15 31 -20
31 -4 0 -5 -5 -1 -12 4 -7 3 -8 -5 -4 -8 5 -9 12 -3 19 6 8 6 37 1 77 -5 35
-6 71 -3 80 4 8 7 18 6 22 -1 3 6 12 15 20 12 9 15 9 9 1 -4 -7 -2 -13 3 -13
6 0 11 5 11 10 0 18 19 10 25 -11 4 -13 12 -18 21 -15 10 4 12 2 8 -6 -5 -7
-2 -9 9 -5 14 5 15 2 6 -20 -9 -24 -8 -25 8 -12 15 12 16 12 11 -3 -4 -9 -1
-19 7 -22 8 -3 12 -14 10 -26 -2 -11 0 -18 4 -15 14 8 20 -21 8 -35 -9 -10 -9
-11 2 -5 11 6 13 4 8 -8 -3 -10 -2 -17 3 -17 6 0 10 5 10 12 0 6 3 8 6 5 4 -4
1 -13 -6 -22 -14 -17 -30 -15 150 -21 69 -2 178 -11 242 -19 203 -26 302 -17
292 28 -3 12 -7 33 -10 47 -6 36 -26 70 -36 64 -8 -5 -12 10 -9 35 2 7 -2 10
-8 7 -6 -4 -13 5 -17 19 -3 14 -10 25 -14 25 -8 0 -18 30 -26 80 -3 14 -12 47
-20 73 -28 85 -14 260 19 240 7 -3 4 3 -5 14 -10 11 -18 24 -18 29 0 5 5 2 10
-6 9 -13 10 -13 10 1 0 8 -18 28 -40 45 -22 16 -40 33 -40 37 0 5 -4 5 -10 2
-5 -3 -10 -2 -10 2 0 11 -93 45 -112 42 -7 -2 -38 1 -68 6 -57 9 -72 11 -103
14 -11 0 -15 6 -11 13 5 8 2 9 -9 5 -9 -3 -23 1 -32 9 -8 8 -19 13 -24 10 -4
-3 -16 3 -26 14 -10 11 -24 20 -32 20 -7 0 -13 7 -13 15 0 8 -3 14 -7 13 -10
-3 -107 53 -111 64 -2 4 -10 8 -18 8 -8 0 -17 6 -20 14 -3 8 -16 17 -30 20
-13 4 -24 11 -24 16 0 6 -9 10 -20 10 -11 0 -20 7 -20 16 0 8 -4 13 -9 10 -4
-3 -17 2 -27 10 -10 9 -12 12 -4 8 8 -4 11 -3 7 1 -7 9 -23 13 -59 17 -9 1
-15 5 -12 9 2 4 -3 12 -11 19 -8 7 -15 9 -15 5 0 -4 -9 4 -20 18 -21 27 -100
70 -100 55z"/>
<path d="M2290 3350 c0 -6 -4 -8 -10 -5 -5 3 -10 -3 -10 -14 0 -23 -15 -28
-24 -8 -15 30 5 -33 26 -85 25 -64 43 -80 22 -20 -12 34 -19 103 -7 75 2 -7
11 -13 19 -13 9 0 13 -4 9 -9 -3 -5 0 -13 6 -16 5 -4 8 -13 5 -21 -3 -7 -1
-16 4 -19 5 -3 16 -29 25 -58 20 -59 35 -81 35 -50 0 12 -13 50 -28 85 -16 34
-34 84 -42 111 -12 44 -30 72 -30 47z"/>
<path d="M1240 3180 c0 -5 5 -10 11 -10 5 0 7 5 4 10 -3 6 -8 10 -11 10 -2 0
-4 -4 -4 -10z"/>
<path d="M2776 3045 c-3 -8 -1 -15 4 -15 6 0 10 4 10 10 0 5 7 6 17 3 11 -4
14 -3 9 5 -10 17 -33 15 -40 -3z"/>
<path d="M1840 3000 c0 -5 5 -10 11 -10 5 0 7 5 4 10 -3 6 -8 10 -11 10 -2 0
-4 -4 -4 -10z"/>
<path d="M1890 2980 c6 -11 15 -20 21 -20 6 0 7 -5 4 -10 -4 -6 -3 -10 2 -9
12 4 63 -23 63 -33 0 -4 6 -8 13 -8 6 1 1 10 -13 21 -14 11 -39 34 -57 50 -37
34 -48 37 -33 9z"/>
<path d="M2070 2844 c0 -2 9 -8 20 -14 11 -6 20 -7 20 -2 0 6 -9 12 -20 15
-11 3 -20 3 -20 1z"/>
<path d="M1383 2818 c-12 -13 -25 -35 -28 -50 -4 -16 -11 -28 -15 -28 -5 0 -6
-10 -3 -22 4 -19 3 -20 -6 -8 -6 8 -11 10 -11 4 0 -6 3 -14 7 -18 4 -3 8 -17
10 -29 2 -12 8 -24 13 -25 6 -2 8 -8 5 -12 -7 -11 30 -82 38 -74 3 4 5 -2 5
-12 -2 -26 27 -68 57 -84 14 -7 25 -17 25 -22 0 -4 7 -8 15 -8 8 0 15 -5 15
-12 0 -9 3 -9 11 -1 6 6 18 9 25 6 20 -7 17 4 -7 38 -14 21 -19 39 -15 57 3
15 8 41 11 57 8 35 91 98 134 101 14 1 36 2 49 3 18 1 22 7 22 33 0 30 -1 31
-15 12 -9 -12 -14 -14 -15 -6 0 7 -5 10 -12 6 -6 -4 -8 -3 -4 4 5 9 -46 55
-64 58 -4 0 -74 14 -100 19 -3 0 -22 7 -43 14 -21 7 -47 11 -57 8 -11 -3 -20
-1 -22 5 -2 5 -13 -1 -25 -14z"/>
<path d="M1620 2511 c0 -6 10 -13 23 -16 207 -45 396 -90 452 -107 39 -11 82
-20 96 -20 14 0 38 -10 54 -24 16 -14 35 -22 43 -19 7 3 22 5 32 5 10 0 31 10
47 23 15 13 47 29 71 37 65 20 50 29 -24 14 -60 -13 -113 -12 -136 2 -5 4 -58
12 -116 20 -159 21 -164 22 -202 29 -19 3 -68 15 -110 27 -41 12 -88 23 -105
25 -16 2 -51 6 -77 9 -31 4 -48 2 -48 -5z"/>
<path d="M2070 2496 c0 -2 7 -7 16 -10 8 -3 12 -2 9 4 -6 10 -25 14 -25 6z"/>
<path d="M2135 2490 c-23 -5 -5 -10 72 -22 56 -9 110 -22 120 -28 15 -9 14
-10 -7 -4 -17 4 -22 3 -15 -4 16 -17 86 -20 114 -6 13 7 29 10 34 7 6 -3 7 -1
3 5 -4 7 6 9 31 6 34 -3 32 -2 -12 11 -63 19 -79 19 -72 1 4 -10 1 -13 -9 -9
-7 3 -14 8 -14 12 0 4 -12 6 -27 6 -16 -1 -38 8 -51 19 -17 15 -25 17 -30 9
-6 -9 -23 -10 -57 -5 -28 4 -63 5 -80 2z"/>
<path d="M2507 2419 c7 -7 15 -10 18 -7 3 3 -2 9 -12 12 -14 6 -15 5 -6 -5z"/>
<path d="M3030 2420 c0 -5 5 -10 10 -10 6 0 10 5 10 10 0 6 -4 10 -10 10 -5 0
-10 -4 -10 -10z"/>
<path d="M1777 2320 c8 -32 65 -59 104 -51 l34 7 -34 18 c-18 10 -50 24 -71
31 -35 12 -37 12 -33 -5z"/>
<path d="M2820 2281 c0 -6 7 -11 16 -11 8 0 12 -5 9 -10 -4 -6 -3 -10 2 -9 24
4 53 -2 48 -11 -3 -5 11 -17 32 -26 21 -9 48 -21 60 -27 12 -5 24 -20 28 -34
3 -13 13 -27 23 -30 35 -12 72 -56 66 -77 -6 -19 -4 -18 15 4 l22 25 -25 8
c-14 5 -26 15 -26 23 0 8 -7 14 -16 14 -8 0 -13 4 -9 9 3 5 -1 16 -9 24 -8 8
-13 16 -11 19 2 2 -14 23 -36 47 -21 25 -42 41 -45 38 -4 -4 -15 3 -25 15
l-19 21 0 -29 c-1 -29 -1 -29 -18 -9 -9 11 -24 21 -32 21 -8 1 -23 5 -32 9
-11 4 -18 3 -18 -4z"/>
<path d="M2219 2193 c-13 -16 -12 -17 4 -4 9 7 17 15 17 17 0 8 -8 3 -21 -13z"/>
<path d="M2125 2150 c-8 -13 5 -13 25 0 13 8 13 10 -2 10 -9 0 -20 -4 -23 -10z"/>
<path d="M2030 2110 c-9 -6 -10 -10 -3 -10 6 0 15 5 18 10 8 12 4 12 -15 0z"/>
<path d="M3057 2074 c-4 -7 0 -17 7 -23 11 -9 16 -9 22 0 4 7 3 9 -4 5 -6 -3
-12 2 -14 11 -2 12 -6 14 -11 7z"/>
<path d="M1790 2010 c-9 -6 -10 -10 -3 -10 6 0 15 5 18 10 8 12 4 12 -15 0z"/>
<path d="M1730 1991 c0 -5 9 -7 20 -4 11 3 20 7 20 9 0 2 -9 4 -20 4 -11 0
-20 -4 -20 -9z"/>
<path d="M1686 1982 c-3 -4 4 -9 15 -9 23 -2 25 3 4 10 -8 4 -16 3 -19 -1z"/>
<path d="M3170 1976 c0 -2 9 -6 20 -9 11 -3 18 -1 14 4 -5 9 -34 13 -34 5z"/>
<path d="M1675 1950 c-11 -5 -17 -9 -13 -9 3 -1 13 -3 21 -6 8 -4 14 0 14 10
0 8 -1 15 -1 14 -1 0 -10 -4 -21 -9z"/>
<path d="M2025 1873 c-120 -14 -274 -56 -275 -74 -1 -25 114 -124 131 -113 5
3 9 1 9 -5 0 -9 25 -21 43 -21 4 0 31 -17 60 -40 l52 -40 17 38 c10 20 18 46
18 57 0 11 9 47 20 79 11 33 20 74 20 93 0 36 -5 37 -95 26z"/>
<path d="M276 1704 c-3 -8 1 -65 10 -127 25 -175 4 -315 -55 -371 -26 -25 -36
-28 -70 -23 -24 3 -65 22 -101 46 l-60 41 1 -383 0 -382 58 3 c80 5 95 -11 86
-86 -11 -90 -29 -133 -88 -216 -55 -75 -57 -80 -57 -142 0 -35 4 -64 8 -64 18
0 142 158 165 211 17 39 35 62 60 76 93 55 153 14 177 -118 25 -136 35 -164
62 -167 24 -3 26 1 36 67 7 38 12 122 12 185 0 113 1 116 23 121 45 12 254
-123 354 -228 76 -80 139 -131 146 -119 13 20 -31 80 -135 186 -62 64 -125
139 -140 168 -28 50 -36 110 -19 136 32 51 314 55 483 6 63 -19 88 -14 88 15
0 14 -9 22 -27 26 -61 13 -159 49 -185 67 -17 12 -56 22 -102 27 -171 19 -241
126 -149 224 38 40 147 111 219 143 140 61 171 84 158 118 -12 31 -41 26 -121
-22 -121 -73 -257 -110 -328 -91 -98 27 -100 148 -5 294 71 109 121 245 90
245 -20 0 -75 -67 -133 -160 -63 -103 -141 -185 -185 -194 -44 -10 -94 16
-121 64 -14 25 -25 71 -32 127 -11 98 -21 134 -55 210 -13 28 -28 63 -34 77
-11 29 -25 34 -34 10z"/>
<path d="M2207 1623 c-4 -3 -7 -11 -7 -17 0 -6 5 -5 12 2 6 6 9 14 7 17 -3 3
-9 2 -12 -2z"/>
<path d="M1265 860 c-4 -6 -11 -7 -17 -4 -7 4 -8 2 -4 -4 10 -16 23 -15 30 3
6 17 0 20 -9 5z"/>
</g>
</svg>
